HIERARCHY
ROOT Hips
{
 OFFSET 0.000000 0.000000 0.000000
 CHANNELS 6 Xposition Yposition Zposition Yrotation Xrotation Zrotation
 JOINT Chest
 {
  OFFSET 0.000000 9.585900 0.002600
  CHANNELS 3 Yrotation Xrotation Zrotation
  JOINT Chest2
  {
   OFFSET 0.000000 9.601200 -0.005300
   CHANNELS 3 Yrotation Xrotation Zrotation
   JOINT Chest3
   {
    OFFSET 0.000000 9.561800 0.000000
    CHANNELS 3 Yrotation Xrotation Zrotation
    JOINT Chest4
    {
     OFFSET 0.000000 9.552100 0.000000
     CHANNELS 3 Yrotation Xrotation Zrotation
     JOINT Neck
     {
      OFFSET 0.000000 14.453000 0.000000
      CHANNELS 3 Yrotation Xrotation Zrotation
      JOINT Head
      {
       OFFSET 0.000000 8.936500 -0.011300
       CHANNELS 3 Yrotation Xrotation Zrotation
       End Site
       {
        OFFSET 0.000000 17.073600 -0.006000
       }
      }
     }
     JOINT RightCollar
     {
      OFFSET -2.921100 9.558500 0.000000
      CHANNELS 3 Yrotation Xrotation Zrotation
      JOINT RightShoulder
      {
       OFFSET -13.519700 0.000000 0.000000
       CHANNELS 3 Yrotation Xrotation Zrotation
       JOINT RightElbow
       {
        OFFSET 0.000000 -29.696600 0.000000
        CHANNELS 3 Yrotation Xrotation Zrotation
        JOINT RightWrist
        {
         OFFSET 0.000000 -24.004700 0.000000
         CHANNELS 3 Yrotation Xrotation Zrotation
         End Site
         {
          OFFSET 0.000000 -17.728500 0.000000
         }
        }
       }
      }
     }
     JOINT LeftCollar
     {
      OFFSET 2.921100 9.558500 0.000000
      CHANNELS 3 Yrotation Xrotation Zrotation
      JOINT LeftShoulder
      {
       OFFSET 13.519700 0.000000 0.000000
       CHANNELS 3 Yrotation Xrotation Zrotation
       JOINT LeftElbow
       {
        OFFSET 0.000000 -29.696600 0.000000
        CHANNELS 3 Yrotation Xrotation Zrotation
        JOINT LeftWrist
        {
         OFFSET 0.000000 -24.004700 0.000000
         CHANNELS 3 Yrotation Xrotation Zrotation
         End Site
         {
          OFFSET 0.000000 -17.728500 0.000000
         }
        }
       }
      }
     }
    }
   }
  }
 }
 JOINT RightHip
 {
  OFFSET -7.771700 -0.012900 -0.001300
  CHANNELS 3 Yrotation Xrotation Zrotation
  JOINT RightKnee
  {
   OFFSET 0.000000 -40.869800 0.001200
   CHANNELS 3 Yrotation Xrotation Zrotation
   JOINT RightAnkle
   {
    OFFSET 0.000000 -39.717900 0.002100
    CHANNELS 3 Yrotation Xrotation Zrotation
    JOINT RightToe
    {
     OFFSET 0.000000 -4.965400 11.033500
     CHANNELS 3 Yrotation Xrotation Zrotation
     End Site
     {
      OFFSET 0.000000 -1.423100 5.872300
     }
    }
   }
  }
 }
 JOINT LeftHip
 {
  OFFSET 7.771700 -0.012900 -0.001300
  CHANNELS 3 Yrotation Xrotation Zrotation
  JOINT LeftKnee
  {
   OFFSET 0.000000 -40.869800 0.001200
   CHANNELS 3 Yrotation Xrotation Zrotation
   JOINT LeftAnkle
   {
    OFFSET 0.000000 -39.717900 0.002100
    CHANNELS 3 Yrotation Xrotation Zrotation
    JOINT LeftToe
    {
     OFFSET 0.000000 -4.965400 11.033500
     CHANNELS 3 Yrotation Xrotation Zrotation
     End Site
     {
      OFFSET 0.000000 -1.423100 5.872300
     }
    }
   }
  }
 }
}
MOTION
Frames: 9
Frame Time: 0.008333
0.000000 85.388000 0.000000 0.000000 -5.767877 0.000000 0.000000 11.653817 0.000000 0.000000 -5.885947 0.000000 0.000000 -0.000000 0.000000 0.000000 -0.000000 0.000000 0.000000 12.528835 0.000000 0.000000 0.711642 0.000000 0.000000 -0.000000 0.000000 0.000000 0.000000 -90.000000 0.000000 -2.309062 0.000000 0.000000 2.309062 0.000000 0.000000 -0.000000 0.000000 0.000000 -0.000000 90.000000 0.000000 -2.309062 0.000000 0.000000 2.309062 0.000000 0.000000 8.520406 0.000000 0.000000 1.905762 0.000000 -0.000000 -4.658285 0.000000 0.000000 -0.000000 0.000000 0.000000 8.520406 0.000000 0.000000 1.905762 0.000000 -0.000000 -4.658285 0.000000 0.000000 -0.000000 0.000000
-9.874763 57.974808 39.418135 163.990281 -51.147481 -0.572300 4.439888 25.927484 2.725886 0.668364 4.416963 0.224721 1.069882 7.020579 0.378619 3.546774 21.464294 1.636992 0.567281 18.635285 0.094347 1.005971 -1.181560 -0.010134 5.040795 5.303062 1.320157 18.484881 -29.735263 -13.933845 44.118829 -56.207664 -24.539103 7.865637 -0.857504 -22.262984 -6.870656 2.554530 -2.691430 -17.152739 -22.595740 9.281516 -56.828709 -56.991577 34.976064 -28.340824 2.249914 15.238037 15.196203 -22.428094 6.430749 -12.026822 65.690717 -3.096666 4.131154 5.496611 2.869885 -0.016747 0.100923 -0.017310 -8.021853 -22.163809 3.886058 32.053197 67.219574 28.656881 -21.425048 3.879132 -5.143899 -0.229389 -0.554096 -0.103389
-9.872557 57.975227 39.419039 163.985080 -51.151123 -0.574459 4.447097 25.923023 2.738789 0.667334 4.423238 0.220248 1.071129 7.020011 0.380123 3.551181 21.461772 1.639916 0.562646 18.630111 0.093313 1.003481 -1.183830 -0.009576 5.034002 5.311345 1.320643 18.487424 -29.731554 -13.936230 44.124946 -56.214053 -24.550296 7.862262 -0.863433 -22.260146 -6.876669 2.563836 -2.694310 -17.151317 -22.597643 9.280836 -56.844368 -56.994739 34.991560 -28.337640 2.256958 15.238337 15.197946 -22.425455 6.439292 -12.026836 65.687232 -3.093658 4.129128 5.497543 2.868224 -0.016606 0.102921 -0.016876 -8.019818 -22.157769 3.890256 32.065872 67.217370 28.668273 -21.388311 3.876471 -5.145122 -0.215205 -0.549798 -0.097773
-9.870850 57.975991 39.419537 163.973199 -51.158279 -0.566278 4.456162 25.928344 2.741496 0.666125 4.423047 0.222230 1.073249 7.021522 0.378548 3.552008 21.461923 1.640447 0.561997 18.620878 0.092361 0.998661 -1.186478 -0.006310 5.028266 5.317440 1.330493 18.495139 -29.724792 -13.945270 44.139441 -56.222558 -24.568560 7.862310 -0.859561 -22.259140 -6.880732 2.566536 -2.694324 -17.154706 -22.593588 9.287077 -56.843545 -57.001500 35.009328 -28.337894 2.256112 15.227121 15.205404 -22.418708 6.444430 -12.035396 65.684501 -3.101037 4.131824 5.496925 2.868963 -0.016763 0.105076 -0.015807 -8.019262 -22.144884 3.898244 32.059152 67.215085 28.652667 -21.386965 3.869161 -5.147196 -0.209331 -0.542719 -0.095125
-9.869011 57.976194 39.420543 163.971024 -51.161900 -0.566138 4.460262 25.930379 2.744311 0.666807 4.423771 0.222814 1.071739 7.022155 0.378312 3.554648 21.462180 1.641010 0.559764 18.615724 0.091863 0.995043 -1.232141 -0.002749 5.023674 5.324768 1.335667 18.500672 -29.728274 -13.951761 44.149419 -56.233281 -24.583321 7.863041 -0.847881 -22.255896 -6.883445 2.568292 -2.692345 -17.154372 -22.587091 9.289664 -56.840751 -57.008848 35.021680 -28.344943 2.250049 15.214614 15.208014 -22.415665 6.448575 -12.057971 65.682039 -3.118608 4.135629 5.497142 2.868040 -0.016976 0.105951 -0.015506 -8.020760 -22.140791 3.903720 32.061428 67.216556 28.652786 -21.387383 3.866554 -5.147920 -0.211329 -0.541432 -0.095066
-9.867093 57.975938 39.421929 163.972114 -51.162608 -0.569269 4.461817 25.930343 2.747515 0.667223 4.422652 0.220999 1.072740 7.023186 0.377378 3.556589 21.463276 1.638125 0.559145 18.609783 0.097323 0.994514 -1.234770 -0.000085 5.019027 5.325758 1.345993 18.500931 -29.719196 -13.951966 44.167983 -56.245370 -24.608692 7.864533 -0.841528 -22.255554 -6.891926 2.575271 -2.685822 -17.134991 -22.586600 9.290524 -56.859082 -57.017240 35.036228 -28.350553 2.250403 15.212571 15.208969 -22.416685 6.453375 -12.080432 65.679333 -3.137349 4.140684 5.501653 2.868625 -0.017126 0.103543 -0.015214 -8.022980 -22.139869 3.907061 32.056920 67.216186 28.651993 -21.383040 3.865639 -5.155330 -0.205760 -0.541169 -0.092092
-9.864824 57.974757 39.424156 163.980878 -51.156389 -0.582353 4.460711 25.923743 2.755434 0.668486 4.423581 0.221996 1.072089 7.024457 0.377510 3.554529 21.465193 1.638374 0.558259 18.598164 0.096406 0.992974 -1.255930 -0.001690 5.017856 5.323087 1.350320 18.507107 -29.709035 -13.959252 44.174485 -56.256823 -24.626811 7.869453 -0.837200 -22.252899 -6.893722 2.575846 -2.686575 -17.121156 -22.582343 9.291265 -56.871691 -57.030306 35.050522 -28.359588 2.250133 15.207164 15.201580 -22.424373 6.460024 -12.092104 65.675595 -3.145736 4.143174 5.505564 2.866856 -0.018157 0.103245 -0.013509 -8.036329 -22.148760 3.918979 32.033104 67.220368 28.635962 -21.395247 3.872682 -5.174148 -0.193146 -0.549075 -0.085663
-9.864122 57.974387 39.425184 163.979770 -51.156359 -0.578332 4.456754 25.925911 2.751147 0.670603 4.425418 0.223462 1.069759 7.024387 0.375922 3.556959 21.469202 1.638493 0.561537 18.577828 0.094792 0.991518 -1.270187 -0.001501 5.024635 5.314508 1.354142 18.504343 -29.704553 -13.963972 44.174175 -56.264867 -24.632615 7.873721 -0.822719 -22.255793 -6.893162 2.571160 -2.686496 -17.112200 -22.584321 9.288487 -56.883781 -57.034978 35.061864 -28.360721 2.249954 15.199613 15.203025 -22.424040 6.455980 -12.063608 65.675925 -3.116344 4.131632 5.506771 2.865006 -0.017497 0.103352 -0.013668 -8.039732 -22.150537 3.915608 32.037041 67.220236 28.638848 -21.388404 3.877900 -5.176231 -0.195143 -0.553318 -0.086686
-9.863739 57.974257 39.425871 163.975653 -51.157660 -0.572051 4.459729 25.928901 2.750362 0.669974 4.422406 0.222559 1.071607 7.029709 0.376711 3.556121 21.468089 1.637745 0.564234 18.566062 0.094390 0.988531 -1.286973 -0.002203 5.025738 5.312748 1.357406 18.504298 -29.703530 -13.966390 44.175339 -56.268336 -24.637365 7.871292 -0.825411 -22.258463 -6.895154 2.569201 -2.685668 -17.099142 -22.586781 9.284389 -56.900223 -57.041267 35.069161 -28.364089 2.253007 15.193109 15.205834 -22.422696 6.455369 -12.051385 65.675825 -3.107512 4.127492 5.507705 2.868461 -0.018143 0.103365 -0.014818 -8.037443 -22.149430 3.910212 32.036851 67.217070 28.640703 -21.379597 3.883475 -5.183744 -0.191088 -0.555711 -0.082970
